HIERARCHY
ROOT Hips
{
	OFFSET 0.000000 100.481300 0.000000
	CHANNELS 6 Xposition Yposition Zposition Xrotation Yrotation Zrotation
	JOINT Spine
	{
		OFFSET -0.279200 12.230698 -2.892100
		CHANNELS 3 Xrotation Yrotation Zrotation
		JOINT Spine1
		{
			OFFSET -0.325700 14.269203 -3.374200
			CHANNELS 3 Xrotation Yrotation Zrotation
			JOINT Spine2
			{
				OFFSET -0.372300 16.307602 -0.352600
				CHANNELS 3 Xrotation Yrotation Zrotation
				JOINT Neck
				{
					OFFSET -0.418800 17.814194 8.416900
					CHANNELS 3 Xrotation Yrotation Zrotation
					JOINT Head
					{
						OFFSET 0.000000 7.031097 3.806800
						CHANNELS 3 Xrotation Yrotation Zrotation
						JOINT HeadTop_End
						{
							OFFSET 0.000000 24.646606 12.978600
							CHANNELS 3 Xrotation Yrotation Zrotation
							End Site
							{
								OFFSET 0.000000 27.854965 0.000000
							}
						}
					}
				}
				JOINT LeftShoulder
				{
					OFFSET 16.952999 14.495407 -7.737500
					CHANNELS 3 Xrotation Yrotation Zrotation
					JOINT LeftArm
					{
						OFFSET 9.308998 -2.777710 0.208600
						CHANNELS 3 Xrotation Yrotation Zrotation
						JOINT LeftForeArm
						{
							OFFSET 29.972298 0.000000 0.000000
							CHANNELS 3 Xrotation Yrotation Zrotation
							JOINT LeftHand
							{
								OFFSET 26.026505 0.000000 0.000000
								CHANNELS 3 Xrotation Yrotation Zrotation
								JOINT LeftHandThumb1
								{
									OFFSET 12.240501 -7.147949 9.207150
									CHANNELS 3 Xrotation Yrotation Zrotation
									JOINT LeftHandThumb2
									{
										OFFSET 4.138618 -2.389435 2.389433
										CHANNELS 3 Xrotation Yrotation Zrotation
										JOINT LeftHandThumb3
										{
											OFFSET 2.726913 -1.574387 1.574386
											CHANNELS 3 Xrotation Yrotation Zrotation
											JOINT LeftHandThumb4
											{
												OFFSET 3.941010 -2.275345 2.275342
												CHANNELS 3 Xrotation Yrotation Zrotation
												End Site
												{
													OFFSET -0.005798 5.087799 0.009903
												}
											}
										}
									}
								}
								JOINT LeftHandIndex1
								{
									OFFSET 24.424698 -1.985611 5.953459
									CHANNELS 3 Xrotation Yrotation Zrotation
									JOINT LeftHandIndex2
									{
										OFFSET 6.426697 0.000000 0.000000
										CHANNELS 3 Xrotation Yrotation Zrotation
										JOINT LeftHandIndex3
										{
											OFFSET 5.337898 0.000000 0.000000
											CHANNELS 3 Xrotation Yrotation Zrotation
											JOINT LeftHandIndex4
											{
												OFFSET 4.409401 0.000000 0.000000
												CHANNELS 3 Xrotation Yrotation Zrotation
												End Site
												{
													OFFSET 0.000000 4.409363 0.014373
												}
											}
										}
									}
								}
								JOINT LeftHandMiddle1
								{
									OFFSET 23.810104 0.000000 0.000000
									CHANNELS 3 Xrotation Yrotation Zrotation
									JOINT LeftHandMiddle2
									{
										OFFSET 7.176498 0.000000 0.000000
										CHANNELS 3 Xrotation Yrotation Zrotation
										JOINT LeftHandMiddle3
										{
											OFFSET 6.774902 0.000000 0.000000
											CHANNELS 3 Xrotation Yrotation Zrotation
											JOINT LeftHandMiddle4
											{
												OFFSET 5.403328 0.000000 0.000000
												CHANNELS 3 Xrotation Yrotation Zrotation
												End Site
												{
													OFFSET -0.027702 5.403244 0.017414
												}
											}
										}
									}
								}
								JOINT LeftHandRing1
								{
									OFFSET 22.908401 -0.839279 -6.020567
									CHANNELS 3 Xrotation Yrotation Zrotation
									JOINT LeftHandRing2
									{
										OFFSET 6.337502 0.000000 0.000000
										CHANNELS 3 Xrotation Yrotation Zrotation
										JOINT LeftHandRing3
										{
											OFFSET 5.779297 0.000000 0.000000
											CHANNELS 3 Xrotation Yrotation Zrotation
											JOINT LeftHandRing4
											{
												OFFSET 4.965698 0.000000 0.000000
												CHANNELS 3 Xrotation Yrotation Zrotation
												End Site
												{
													OFFSET 0.000000 4.965668 0.016186
												}
											}
										}
									}
								}
								JOINT LeftHandPinky1
								{
									OFFSET 20.037003 -1.530319 -10.950146
									CHANNELS 3 Xrotation Yrotation Zrotation
									JOINT LeftHandPinky2
									{
										OFFSET 5.254700 0.000000 0.000000
										CHANNELS 3 Xrotation Yrotation Zrotation
										JOINT LeftHandPinky3
										{
											OFFSET 4.810204 0.000000 0.000000
											CHANNELS 3 Xrotation Yrotation Zrotation
											JOINT LeftHandPinky4
											{
												OFFSET 3.647202 0.000000 0.000000
												CHANNELS 3 Xrotation Yrotation Zrotation
												End Site
												{
													OFFSET 0.000000 3.647186 0.011889
												}
											}
										}
									}
								}
							}
						}
					}
				}
				JOINT RightShoulder
				{
					OFFSET -15.141001 14.495407 -7.737500
					CHANNELS 3 Xrotation Yrotation Zrotation
					JOINT RightArm
					{
						OFFSET -9.308998 -2.777710 0.208500
						CHANNELS 3 Xrotation Yrotation Zrotation
						JOINT RightForeArm
						{
							OFFSET -29.972300 0.000000 0.000000
							CHANNELS 3 Xrotation Yrotation Zrotation
							JOINT RightHand
							{
								OFFSET -26.026505 0.000000 0.000000
								CHANNELS 3 Xrotation Yrotation Zrotation
								JOINT RightHandThumb1
								{
									OFFSET -12.240601 -7.148026 9.207092
									CHANNELS 3 Xrotation Yrotation Zrotation
									JOINT RightHandThumb2
									{
										OFFSET -4.138618 -2.389435 2.389433
										CHANNELS 3 Xrotation Yrotation Zrotation
										JOINT RightHandThumb3
										{
											OFFSET -2.726974 -1.574417 1.574421
											CHANNELS 3 Xrotation Yrotation Zrotation
											JOINT RightHandThumb4
											{
												OFFSET -3.941010 -2.275345 2.275343
												CHANNELS 3 Xrotation Yrotation Zrotation
												End Site
												{
													OFFSET 0.005814 5.087799 0.009927
												}
											}
										}
									}
								}
								JOINT RightHandIndex1
								{
									OFFSET -24.424698 -1.985657 5.953444
									CHANNELS 3 Xrotation Yrotation Zrotation
									JOINT RightHandIndex2
									{
										OFFSET -6.426697 0.000000 0.000000
										CHANNELS 3 Xrotation Yrotation Zrotation
										JOINT RightHandIndex3
										{
											OFFSET -5.337898 0.000000 0.000000
											CHANNELS 3 Xrotation Yrotation Zrotation
											JOINT RightHandIndex4
											{
												OFFSET -4.409401 0.000000 0.000000
												CHANNELS 3 Xrotation Yrotation Zrotation
												End Site
												{
													OFFSET 0.000000 4.409363 0.014408
												}
											}
										}
									}
								}
								JOINT RightHandMiddle1
								{
									OFFSET -23.810097 0.000000 0.000000
									CHANNELS 3 Xrotation Yrotation Zrotation
									JOINT RightHandMiddle2
									{
										OFFSET -7.176498 0.000000 0.000000
										CHANNELS 3 Xrotation Yrotation Zrotation
										JOINT RightHandMiddle3
										{
											OFFSET -6.774902 0.000000 0.000000
											CHANNELS 3 Xrotation Yrotation Zrotation
											JOINT RightHandMiddle4
											{
												OFFSET -5.403328 0.000000 0.000000
												CHANNELS 3 Xrotation Yrotation Zrotation
												End Site
												{
													OFFSET 0.027702 5.403244 0.017457
												}
											}
										}
									}
								}
								JOINT RightHandRing1
								{
									OFFSET -22.908302 -0.839325 -6.020576
									CHANNELS 3 Xrotation Yrotation Zrotation
									JOINT RightHandRing2
									{
										OFFSET -6.337502 0.000000 0.000000
										CHANNELS 3 Xrotation Yrotation Zrotation
										JOINT RightHandRing3
										{
											OFFSET -5.779297 0.000000 0.000000
											CHANNELS 3 Xrotation Yrotation Zrotation
											JOINT RightHandRing4
											{
												OFFSET -4.965698 0.000000 0.000000
												CHANNELS 3 Xrotation Yrotation Zrotation
												End Site
												{
													OFFSET 0.000000 4.965668 0.016226
												}
											}
										}
									}
								}
								JOINT RightHandPinky1
								{
									OFFSET -20.037003 -1.530334 -10.950259
									CHANNELS 3 Xrotation Yrotation Zrotation
									JOINT RightHandPinky2
									{
										OFFSET -5.254700 0.000000 0.000000
										CHANNELS 3 Xrotation Yrotation Zrotation
										JOINT RightHandPinky3
										{
											OFFSET -4.810204 0.000000 0.000000
											CHANNELS 3 Xrotation Yrotation Zrotation
											JOINT RightHandPinky4
											{
												OFFSET -3.647202 0.000000 0.000000
												CHANNELS 3 Xrotation Yrotation Zrotation
												End Site
												{
													OFFSET 0.000000 3.647186 0.011917
												}
											}
										}
									}
								}
							}
						}
					}
				}
			}
		}
	}
	JOINT LeftUpLeg
	{
		OFFSET 15.427100 -6.655098 0.678600
		CHANNELS 3 Xrotation Yrotation Zrotation
		JOINT LeftLeg
		{
			OFFSET 4.081073 -39.591068 13.024000
			CHANNELS 3 Xrotation Yrotation Zrotation
			JOINT LeftFoot
			{
				OFFSET -4.081074 -37.707932 -15.979700
				CHANNELS 3 Xrotation Yrotation Zrotation
				JOINT LeftToeBase
				{
					OFFSET 5.346399 -15.068900 20.645000
					CHANNELS 3 Xrotation Yrotation Zrotation
					JOINT LeftToe_End
					{
						OFFSET 2.754700 0.931300 11.300900
						CHANNELS 3 Xrotation Yrotation Zrotation
						End Site
						{
							OFFSET 0.000000 11.669021 0.000000
						}
					}
				}
			}
		}
	}
	JOINT RightUpLeg
	{
		OFFSET -15.569500 -6.655098 0.678600
		CHANNELS 3 Xrotation Yrotation Zrotation
		JOINT RightLeg
		{
			OFFSET -4.081825 -39.591045 13.023800
			CHANNELS 3 Xrotation Yrotation Zrotation
			JOINT RightFoot
			{
				OFFSET 4.081824 -37.707954 -15.979600
				CHANNELS 3 Xrotation Yrotation Zrotation
				JOINT RightToeBase
				{
					OFFSET -5.346400 -15.068900 20.645000
					CHANNELS 3 Xrotation Yrotation Zrotation
					JOINT RightToe_End
					{
						OFFSET -2.754700 0.931300 11.300900
						CHANNELS 3 Xrotation Yrotation Zrotation
						End Site
						{
							OFFSET 0.000000 11.669021 0.000000
						}
					}
				}
			}
		}
	}
}
MOTION
Frames: 5
Frame Time: 0.033333
1.486626 90.320389 -1.743448 -16.971927 -39.313954 -8.511011 7.992407 0.151739 -1.102774 16.413459 -0.125521 -0.745991 16.413517 -0.192922 -0.721089 0.367404 7.480963 0.837545 -6.982134 21.597273 11.882988 -0.000000 -0.000000 0.000001 -37.571074 -4.822513 1.545829 -41.628456 -7.015784 -61.684347 0.000031 -64.995500 0.000036 -119.359646 1.120295 32.549932 4.709229 9.560369 3.111988 19.473187 -1.474911 7.636929 -4.536186 -9.613099 1.492972 -0.000001 0.000002 0.000000 -0.212819 3.933722 -36.747131 2.942134 5.078928 -60.144597 0.513680 2.400831 -24.150494 -0.000003 -0.000001 0.000000 0.405920 5.507052 -52.453155 3.387139 5.308621 -65.057463 0.282021 1.797456 -17.832381 -0.000000 0.000001 -0.000001 -0.074373 5.736791 -61.061427 4.055043 5.569507 -72.094921 0.582672 2.548984 -25.747996 0.000001 -0.000000 -0.000001 -6.565569 4.545137 -72.425215 3.299634 5.267222 -64.107828 0.175341 1.424002 -14.038883 0.000002 -0.000001 -0.000004 -41.176291 -8.605651 -9.942311 -46.819680 58.242963 100.948686 0.000039 98.442963 -0.000047 -52.463100 -17.216605 -29.273118 8.377137 -4.904130 11.022013 21.620192 -18.183919 -18.379228 -0.702891 -49.821196 -32.535135 -0.000002 -0.000002 0.000005 -0.920029 1.683576 12.434978 0.748099 -2.533470 32.898310 0.615645 -2.316063 29.767819 -0.000000 -0.000000 -0.000001 3.413052 -7.186265 51.650259 6.296806 -4.359583 110.634680 0.248696 -1.503060 18.790264 0.000000 -0.000000 -0.000000 -3.349044 -2.600427 57.010582 5.440860 -4.590903 99.698161 1.689415 -3.590706 50.382218 0.000000 -0.000001 0.000000 -3.996442 -3.303941 64.593864 4.058837 -4.618660 82.610523 2.315539 -4.026776 59.787214 -0.000000 0.000000 0.000000 -19.691847 43.634124 27.886966 23.866472 -0.360617 -1.060419 1.173595 2.025251 -4.098270 -0.000012 0.000010 -0.000002 -0.000000 -0.000000 0.000000 8.090765 5.369365 -8.080215 28.380124 0.130526 1.350191 -21.559470 -18.001028 5.110538 -0.020493 -0.000002 -0.000002 0.000000 0.000002 0.000000 
0.934102 90.371475 -1.751829 -16.974372 -39.326351 -8.490567 8.107635 0.671923 -1.131888 15.564550 0.150583 2.222798 15.523145 0.334172 2.761788 -3.000383 9.571369 4.500679 -4.816926 27.821891 0.117383 -0.000000 -0.000000 0.000001 -37.366766 -4.173767 1.790948 -33.406588 3.465372 -66.080748 -0.000023 -68.966517 -0.000023 -117.158672 0.292471 30.281558 4.493861 8.052613 2.568034 19.454624 -3.045138 7.031941 -4.536185 -9.613097 1.492973 -0.000001 -0.000001 0.000000 -0.350627 3.203752 -29.931962 2.356388 4.695694 -53.277412 0.266291 1.747866 -17.324293 0.000002 -0.000001 -0.000000 0.104093 4.896874 -46.199106 2.821271 5.007878 -58.769844 0.119742 1.179593 -11.591443 0.000001 0.000002 0.000000 -0.315254 5.257724 -56.519354 3.616914 5.409098 -67.517233 0.397398 2.122744 -21.204705 -0.000001 -0.000003 -0.000001 -6.633906 4.019948 -70.031876 2.927625 5.070588 -59.980379 0.119040 1.176187 -11.557540 -0.000003 0.000000 -0.000002 -41.004313 -8.817481 -10.831607 -45.774767 60.383913 102.824092 -0.001141 96.003343 0.001126 -50.064757 -21.295609 -22.559594 8.377137 -4.904131 11.022013 21.620194 -18.183919 -18.379228 -0.702890 -49.821196 -32.535131 0.000000 0.000003 0.000002 -0.920029 1.683577 12.434976 0.748098 -2.533470 32.898306 0.615645 -2.316062 29.767815 0.000000 0.000000 -0.000002 3.413052 -7.186265 51.650259 6.296806 -4.359583 110.634680 0.248696 -1.503060 18.790264 0.000000 -0.000000 0.000000 -3.349044 -2.600427 57.010582 5.440860 -4.590903 99.698161 1.689415 -3.590706 50.382221 0.000000 0.000000 0.000000 -3.996441 -3.303942 64.593864 4.058837 -4.618658 82.610523 2.315538 -4.026776 59.787214 0.000001 -0.000000 0.000002 -19.504705 43.603132 28.164804 23.546602 -0.433182 -1.074101 1.419143 2.018345 -4.511167 -0.000056 0.000000 -0.000006 0.000000 -0.000000 -0.000000 8.415053 5.252575 -7.759494 28.229104 0.099701 1.341353 -21.861216 -17.934357 4.731954 -0.020493 -0.000002 -0.000002 0.000000 -0.000000 0.000000 
-0.148258 90.386711 -2.812082 -16.981069 -39.361810 -8.373943 7.309564 -0.101849 0.417980 14.703871 0.031520 4.513775 14.682887 1.035410 6.877550 -8.636063 11.413945 3.164664 -7.722991 27.151476 -1.333663 -0.000000 -0.000000 0.000002 -36.424330 -4.378480 6.908730 -28.794124 15.979251 -73.922830 -0.000004 -59.237595 0.000001 -117.372949 6.262679 21.879391 4.218699 6.251247 1.919506 19.410225 -4.923339 6.295090 -4.536186 -9.613098 1.492973 0.000000 -0.000000 0.000001 -0.388056 2.751584 -25.697567 2.017166 4.423285 -49.012211 0.152384 1.328843 -13.082966 -0.000001 0.000000 -0.000001 -0.040128 4.516133 -42.384397 2.493419 4.794524 -54.933716 0.054084 0.794984 -7.782182 -0.000000 0.000000 0.000002 -0.516837 4.734635 -51.654538 3.163164 5.199029 -62.611613 0.236984 1.650991 -16.335746 0.000002 0.000001 0.000001 -6.658484 3.173241 -66.124038 2.473314 4.780413 -54.692805 0.050270 0.766689 -7.503554 -0.000000 0.000000 0.000001 -40.398940 -9.907804 -14.710091 -62.409556 60.837574 120.310681 0.000903 86.241199 -0.000964 -47.436688 -23.692605 -17.798047 8.377137 -4.904130 11.022010 21.620192 -18.183919 -18.379228 -0.702890 -49.821196 -32.535131 0.000002 0.000001 0.000002 -0.920029 1.683577 12.434975 0.748099 -2.533470 32.898310 0.615645 -2.316063 29.767819 0.000000 -0.000000 0.000000 3.413052 -7.186265 51.650256 6.296807 -4.359583 110.634680 0.248696 -1.503060 18.790264 -0.000001 0.000000 -0.000000 -3.349044 -2.600426 57.010578 5.440860 -4.590903 99.698161 1.689415 -3.590707 50.382221 0.000000 -0.000000 0.000001 -3.996443 -3.303942 64.593864 4.058837 -4.618660 82.610523 2.315538 -4.026775 59.787207 0.000000 -0.000000 -0.000004 -20.662736 43.033603 29.592116 23.245746 -0.735248 -1.156962 3.770525 2.067824 -5.165556 -2.884593 0.000000 -0.000002 -0.000000 0.000001 0.000000 8.014329 5.030348 -6.653450 28.662722 -0.003586 1.332900 -22.298414 -17.684739 3.500918 -0.020493 -0.000002 -0.000002 0.000000 -0.000002 -0.000000 
-0.382915 89.708855 -3.225105 -16.980334 -39.357582 -8.396831 6.568466 -1.059362 1.116983 14.924513 -0.350369 4.583566 15.173595 -0.022847 6.811875 -9.617060 10.858786 3.726660 -14.440451 26.397114 1.403089 0.000001 0.000000 -0.000000 -35.416491 -7.658584 21.294250 -20.078068 22.134710 -81.388623 0.000012 -56.875357 0.000022 -124.444134 6.979704 17.113567 4.178891 6.000719 1.829303 19.402076 -5.184709 6.191212 -4.536187 -9.613098 1.492971 -0.000002 -0.000000 -0.000001 -0.389665 2.730955 -25.518767 2.003286 4.411222 -48.831980 0.148243 1.310966 -12.903726 -0.000001 -0.000000 -0.000000 -0.042001 4.511967 -42.351100 2.490601 4.792564 -54.900166 0.053609 0.791607 -7.748852 0.000001 0.000001 0.000001 -0.532098 4.689402 -51.243221 3.125619 5.179503 -62.196754 0.225256 1.610473 -15.923910 0.000003 0.000001 -0.000000 -6.646464 2.942381 -65.041856 2.346297 4.688183 -53.154127 0.036365 0.652483 -6.380557 0.000000 -0.000001 -0.000002 -40.287738 -10.621157 -15.410734 -72.004968 58.737414 130.242992 -0.000275 83.916210 0.000269 -47.306368 -25.436009 -17.856654 8.377138 -4.904130 11.022011 21.620187 -18.183917 -18.379226 -0.702890 -49.821196 -32.535125 0.000000 0.000001 0.000002 -0.920028 1.683577 12.434978 0.748099 -2.533471 32.898310 0.615644 -2.316062 29.767815 0.000000 0.000000 -0.000000 3.413053 -7.186265 51.650256 6.296806 -4.359582 110.634680 0.248697 -1.503060 18.790264 0.000000 -0.000000 0.000001 -3.349043 -2.600427 57.010582 5.440860 -4.590902 99.698161 1.689415 -3.590706 50.382228 0.000000 0.000000 0.000001 -3.996441 -3.303942 64.593864 4.058836 -4.618658 82.610523 2.315539 -4.026776 59.787214 -0.000000 -0.000000 0.000002 -22.708560 42.125106 31.159982 25.258883 -0.880186 -1.112827 4.341115 2.070987 -5.396053 -4.571043 -0.000003 0.000002 -0.000000 -0.000000 0.000000 7.098374 5.026662 -6.248354 30.383219 0.081357 1.379529 -23.238648 -17.658344 3.101783 -0.020493 0.000002 -0.000002 -0.000000 -0.000000 0.000000 
-0.251490 87.695068 -3.260284 -16.977840 -39.342972 -8.501120 6.083729 -1.579155 1.217406 15.113506 -0.900240 4.320921 15.661052 -1.511884 5.279740 -8.789329 9.776663 4.953685 -19.599779 24.077385 8.137243 -0.000001 -0.000001 -0.000001 -35.036914 -9.460947 25.665520 -16.240078 25.164956 -80.778072 0.000065 -62.574450 0.000056 -127.064113 5.511954 20.559423 4.227076 6.304244 1.938589 19.411879 -4.868032 6.317018 -4.536189 -9.613099 1.492972 0.000000 -0.000001 0.000000 -0.381721 2.892554 -27.051212 2.123354 4.513078 -50.375244 0.185415 1.463674 -14.438537 0.000001 -0.000000 -0.000000 0.013213 4.669300 -43.928474 2.624386 4.883540 -56.486406 0.077571 0.951214 -9.324163 0.000000 0.000001 -0.000002 -0.483538 4.836760 -52.612602 3.251080 5.243465 -63.577819 0.265397 1.744977 -17.294751 0.000000 -0.000000 -0.000000 -6.658804 3.183388 -66.171378 2.433943 4.752368 -54.219169 0.050935 0.771689 -7.552726 -0.000002 -0.000001 -0.000000 -40.516180 -11.034468 -12.926331 -74.955889 57.161378 133.254327 0.000151 84.624903 -0.000099 -48.296817 -27.791667 -18.944279 8.377137 -4.904130 11.022011 21.620194 -18.183919 -18.379226 -0.702889 -49.821200 -32.535128 -0.000002 0.000003 -0.000001 -0.920029 1.683577 12.434977 0.748099 -2.533470 32.898310 0.615644 -2.316062 29.767819 -0.000000 -0.000000 -0.000000 3.413052 -7.186265 51.650256 6.296806 -4.359582 110.634680 0.248697 -1.503060 18.790265 -0.000000 0.000000 -0.000001 -3.349043 -2.600427 57.010585 5.440861 -4.590903 99.698161 1.689415 -3.590707 50.382221 -0.000000 0.000000 -0.000000 -3.996442 -3.303942 64.593864 4.058837 -4.618658 82.610523 2.315540 -4.026776 59.787207 -0.000000 0.000001 0.000002 -25.909819 40.566959 33.340684 30.110175 -0.916572 -0.978417 2.214043 2.085934 -5.503317 -4.441795 0.000010 -0.000001 -0.000000 0.000000 -0.000000 5.099146 5.220184 -6.166430 34.873235 0.399720 1.499150 -25.750047 -17.789733 3.074596 -0.020493 0.000000 -0.000002 0.000000 0.000002 0.000000 
